  0
SECTION
  2
BLOCKS
  0
ENDSEC
  0
SECTION
  2
ENTITIES
  0
LINE
  8
0
 10
93.0902
 20
-9.51056
 11
95
 21
-8.66025
  0
LINE
  8
0
 10
95
 20
-8.66025
 11
96.6913
 21
-7.43144
  0
LINE
  8
0
 10
96.6913
 20
-7.43144
 11
98.0902
 21
-5.87784
  0
LINE
  8
0
 10
98.0902
 20
-5.87784
 11
99.1355
 21
-4.06735
  0
LINE
  8
0
 10
99.1355
 20
-4.06735
 11
99.7815
 21
-2.07912
  0
LINE
  8
0
 10
99.7815
 20
-2.07912
 11
100
 21
0
  0
LINE
  8
0
 10
100
 20
0
 11
100
 21
100
  0
LINE
  8
0
 10
100
 20
100
 11
99.7815
 21
102.079
  0
LINE
  8
0
 10
99.7815
 20
102.079
 11
99.1355
 21
104.067
  0
LINE
  8
0
 10
99.1355
 20
104.067
 11
98.0902
 21
105.878
  0
LINE
  8
0
 10
98.0902
 20
105.878
 11
96.6913
 21
107.431
  0
LINE
  8
0
 10
96.6913
 20
107.431
 11
95
 21
108.66
  0
LINE
  8
0
 10
95
 20
108.66
 11
5
 21
168.66
  0
LINE
  8
0
 10
5
 20
168.66
 11
3.09016
 21
169.511
  0
LINE
  8
0
 10
3.09016
 20
169.511
 11
1.04527
 21
169.945
  0
LINE
  8
0
 10
1.04527
 20
169.945
 11
-1.04527
 21
169.945
  0
LINE
  8
0
 10
-1.04527
 20
169.945
 11
-3.09016
 21
169.511
  0
LINE
  8
0
 10
-3.09016
 20
169.511
 11
-4.99998
 21
168.66
  0
LINE
  8
0
 10
-4.99998
 20
168.66
 11
-6.6913
 21
167.431
  0
LINE
  8
0
 10
-6.6913
 20
167.431
 11
-8.09016
 21
165.878
  0
LINE
  8
0
 10
-8.09016
 20
165.878
 11
-9.13545
 21
164.067
  0
LINE
  8
0
 10
-9.13545
 20
164.067
 11
-9.78146
 21
162.079
  0
LINE
  8
0
 10
-9.78146
 20
162.079
 11
-10
 21
160
  0
LINE
  8
0
 10
-10
 20
160
 11
-10
 21
0
  0
LINE
  8
0
 10
-10
 20
0
 11
-9.78146
 21
-2.07912
  0
LINE
  8
0
 10
-9.78146
 20
-2.07912
 11
-9.13545
 21
-4.06735
  0
LINE
  8
0
 10
-9.13545
 20
-4.06735
 11
-8.09016
 21
-5.87784
  0
LINE
  8
0
 10
-8.09016
 20
-5.87784
 11
-6.6913
 21
-7.43144
  0
LINE
  8
0
 10
-6.6913
 20
-7.43144
 11
-5
 21
-8.66025
  0
LINE
  8
0
 10
-5
 20
-8.66025
 11
-3.09016
 21
-9.51056
  0
LINE
  8
0
 10
-3.09016
 20
-9.51056
 11
-1.04527
 21
-9.94521
  0
LINE
  8
0
 10
-1.04527
 20
-9.94521
 11
91.0453
 21
-9.94521
  0
LINE
  8
0
 10
91.0453
 20
-9.94521
 11
93.0902
 21
-9.51056
  0
LINE
  8
0
 10
13.5478
 20
112.387
 11
11.7002
 21
112.988
  0
LINE
  8
0
 10
11.7002
 20
112.988
 11
10.06
 21
114.029
  0
LINE
  8
0
 10
10.06
 20
114.029
 11
8.73013
 21
115.445
  0
LINE
  8
0
 10
8.73013
 20
115.445
 11
7.79424
 21
117.147
  0
LINE
  8
0
 10
7.79424
 20
117.147
 11
7.31111
 21
119.029
  0
LINE
  8
0
 10
7.31111
 20
119.029
 11
7.31111
 21
120.971
  0
LINE
  8
0
 10
7.31111
 20
120.971
 11
7.79424
 21
122.853
  0
LINE
  8
0
 10
7.79424
 20
122.853
 11
8.73013
 21
124.555
  0
LINE
  8
0
 10
8.73013
 20
124.555
 11
10.06
 21
125.971
  0
LINE
  8
0
 10
10.06
 20
125.971
 11
11.7002
 21
127.012
  0
LINE
  8
0
 10
11.7002
 20
127.012
 11
13.5478
 21
127.613
  0
LINE
  8
0
 10
13.5478
 20
127.613
 11
15.4866
 21
127.735
  0
LINE
  8
0
 10
15.4866
 20
127.735
 11
17.3949
 21
127.371
  0
LINE
  8
0
 10
17.3949
 20
127.371
 11
19.1526
 21
126.544
  0
LINE
  8
0
 10
19.1526
 20
126.544
 11
20.6495
 21
125.305
  0
LINE
  8
0
 10
20.6495
 20
125.305
 11
21.7914
 21
123.734
  0
LINE
  8
0
 10
21.7914
 20
123.734
 11
22.5065
 21
121.927
  0
LINE
  8
0
 10
22.5065
 20
121.927
 11
22.75
 21
120
  0
LINE
  8
0
 10
22.75
 20
120
 11
22.5065
 21
118.073
  0
LINE
  8
0
 10
22.5065
 20
118.073
 11
21.7914
 21
116.266
  0
LINE
  8
0
 10
21.7914
 20
116.266
 11
20.6495
 21
114.695
  0
LINE
  8
0
 10
20.6495
 20
114.695
 11
19.1526
 21
113.456
  0
LINE
  8
0
 10
19.1526
 20
113.456
 11
17.3949
 21
112.629
  0
LINE
  8
0
 10
17.3949
 20
112.629
 11
15.4866
 21
112.265
  0
LINE
  8
0
 10
15.4866
 20
112.265
 11
13.5478
 21
112.387
  0
LINE
  8
0
 10
28.5478
 20
77.3873
 11
26.7002
 21
77.9876
  0
LINE
  8
0
 10
26.7002
 20
77.9876
 11
25.06
 21
79.0285
  0
LINE
  8
0
 10
25.06
 20
79.0285
 11
23.7301
 21
80.4447
  0
LINE
  8
0
 10
23.7301
 20
80.4447
 11
22.7942
 21
82.147
  0
LINE
  8
0
 10
22.7942
 20
82.147
 11
22.3111
 21
84.0287
  0
LINE
  8
0
 10
22.3111
 20
84.0287
 11
22.3111
 21
85.9713
  0
LINE
  8
0
 10
22.3111
 20
85.9713
 11
22.7942
 21
87.853
  0
LINE
  8
0
 10
22.7942
 20
87.853
 11
23.7301
 21
89.5553
  0
LINE
  8
0
 10
23.7301
 20
89.5553
 11
25.06
 21
90.9715
  0
LINE
  8
0
 10
25.06
 20
90.9715
 11
26.7002
 21
92.0124
  0
LINE
  8
0
 10
26.7002
 20
92.0124
 11
28.5478
 21
92.6127
  0
LINE
  8
0
 10
28.5478
 20
92.6127
 11
30.4866
 21
92.7347
  0
LINE
  8
0
 10
30.4866
 20
92.7347
 11
32.3949
 21
92.3707
  0
LINE
  8
0
 10
32.3949
 20
92.3707
 11
34.1526
 21
91.5435
  0
LINE
  8
0
 10
34.1526
 20
91.5435
 11
35.6495
 21
90.3053
  0
LINE
  8
0
 10
35.6495
 20
90.3053
 11
36.7914
 21
88.7336
  0
LINE
  8
0
 10
36.7914
 20
88.7336
 11
37.5065
 21
86.9274
  0
LINE
  8
0
 10
37.5065
 20
86.9274
 11
37.75
 21
85
  0
LINE
  8
0
 10
37.75
 20
85
 11
37.5065
 21
83.0727
  0
LINE
  8
0
 10
37.5065
 20
83.0727
 11
36.7914
 21
81.2664
  0
LINE
  8
0
 10
36.7914
 20
81.2664
 11
35.6495
 21
79.6948
  0
LINE
  8
0
 10
35.6495
 20
79.6948
 11
34.1526
 21
78.4565
  0
LINE
  8
0
 10
34.1526
 20
78.4565
 11
32.3949
 21
77.6293
  0
LINE
  8
0
 10
32.3949
 20
77.6293
 11
30.4866
 21
77.2653
  0
LINE
  8
0
 10
30.4866
 20
77.2653
 11
28.5478
 21
77.3873
  0
LINE
  8
0
 10
73.5478
 20
77.3873
 11
71.7002
 21
77.9876
  0
LINE
  8
0
 10
71.7002
 20
77.9876
 11
70.06
 21
79.0285
  0
LINE
  8
0
 10
70.06
 20
79.0285
 11
68.7301
 21
80.4447
  0
LINE
  8
0
 10
68.7301
 20
80.4447
 11
67.7942
 21
82.147
  0
LINE
  8
0
 10
67.7942
 20
82.147
 11
67.3111
 21
84.0287
  0
LINE
  8
0
 10
67.3111
 20
84.0287
 11
67.3111
 21
85.9713
  0
LINE
  8
0
 10
67.3111
 20
85.9713
 11
67.7942
 21
87.853
  0
LINE
  8
0
 10
67.7942
 20
87.853
 11
68.7301
 21
89.5553
  0
LINE
  8
0
 10
68.7301
 20
89.5553
 11
70.06
 21
90.9715
  0
LINE
  8
0
 10
70.06
 20
90.9715
 11
71.7002
 21
92.0124
  0
LINE
  8
0
 10
71.7002
 20
92.0124
 11
73.5478
 21
92.6127
  0
LINE
  8
0
 10
73.5478
 20
92.6127
 11
75.4866
 21
92.7347
  0
LINE
  8
0
 10
75.4866
 20
92.7347
 11
77.3949
 21
92.3707
  0
LINE
  8
0
 10
77.3949
 20
92.3707
 11
79.1526
 21
91.5435
  0
LINE
  8
0
 10
79.1526
 20
91.5435
 11
80.6495
 21
90.3053
  0
LINE
  8
0
 10
80.6495
 20
90.3053
 11
81.7914
 21
88.7336
  0
LINE
  8
0
 10
81.7914
 20
88.7336
 11
82.5065
 21
86.9274
  0
LINE
  8
0
 10
82.5065
 20
86.9274
 11
82.75
 21
85
  0
LINE
  8
0
 10
82.75
 20
85
 11
82.5065
 21
83.0727
  0
LINE
  8
0
 10
82.5065
 20
83.0727
 11
81.7914
 21
81.2664
  0
LINE
  8
0
 10
81.7914
 20
81.2664
 11
80.6495
 21
79.6948
  0
LINE
  8
0
 10
80.6495
 20
79.6948
 11
79.1526
 21
78.4565
  0
LINE
  8
0
 10
79.1526
 20
78.4565
 11
77.3949
 21
77.6293
  0
LINE
  8
0
 10
77.3949
 20
77.6293
 11
75.4866
 21
77.2653
  0
LINE
  8
0
 10
75.4866
 20
77.2653
 11
73.5478
 21
77.3873
  0
ENDSEC
  0
SECTION
  2
OBJECTS
  0
DICTIONARY
  0
ENDSEC
  0
EOF
